<svg width="404" height="92" viewBox="0 0 404 92" fill="none" xmlns="http://www.w3.org/2000/svg">
<rect x="59.8164" y="12.9604" width="285.065" height="66.048" rx="20" fill="#3BBCF2"/>
<path d="M331.96 18.3844C335.821 6.96807 352.072 6.96807 355.933 18.3844C357.624 23.3872 362.33 26.7913 367.611 26.7913H368.455C380.243 26.7913 385.018 41.972 375.352 48.7203C370.96 51.7868 369.127 57.407 370.843 62.4816C374.617 73.6441 361.982 83.2382 352.32 76.4929L351.194 75.7064C346.84 72.667 341.053 72.6669 336.699 75.7063L335.573 76.4929C325.911 83.2382 313.276 73.6441 317.05 62.4816C318.766 57.407 316.933 51.7868 312.541 48.7203C302.875 41.972 307.65 26.7913 319.438 26.7913H320.282C325.563 26.7913 330.269 23.3872 331.96 18.3844Z" fill="#3BBCF2"/>
<path d="M333.597 23.3966C336.762 14.0274 350.098 14.0274 353.263 23.3966C354.65 27.5046 358.513 30.2994 362.849 30.2994H363.524C373.203 30.2994 377.126 42.7616 369.193 48.306C365.589 50.8245 364.085 55.4363 365.492 59.6016C368.588 68.7677 358.21 76.6396 350.279 71.0974L349.378 70.4678C345.806 67.971 341.054 67.971 337.482 70.4678L336.581 71.0974C328.65 76.6396 318.272 68.7677 321.368 59.6016C322.775 55.4363 321.271 50.8245 317.667 48.306C309.734 42.7616 313.657 30.2994 323.336 30.2994H324.011C328.347 30.2994 332.21 27.5046 333.597 23.3966Z" fill="#FFE833"/>
<path d="M48.0619 17.4483C51.9221 6.03204 68.1739 6.03203 72.0341 17.4483C73.7257 22.4512 78.4313 25.8553 83.7124 25.8553H84.5563C96.3446 25.8553 101.12 41.036 91.4539 47.7842C87.0616 50.8508 85.2287 56.4709 86.9445 61.5455C90.7189 72.7081 78.0833 82.3022 68.4217 75.5568L67.2952 74.7703C62.9417 71.7309 57.1543 71.7309 52.8008 74.7703L51.6743 75.5568C42.0127 82.3022 29.3771 72.708 33.1514 61.5455C34.8673 56.4709 33.0344 50.8508 28.6421 47.7842C18.9764 41.036 23.7514 25.8553 35.5397 25.8553H36.3836C41.6647 25.8553 46.3703 22.4512 48.0619 17.4483Z" fill="#3BBCF2"/>
<path d="M49.699 22.4606C52.8639 13.0914 66.1993 13.0914 69.3641 22.4606C70.7517 26.5685 74.6146 29.3633 78.9505 29.3633H79.6257C89.3046 29.3633 93.2277 41.8255 85.2943 47.3699C81.6906 49.8884 80.1867 54.5002 81.5937 58.6655C84.6899 67.8317 74.3112 75.7036 66.3809 70.1614L65.48 69.5318C61.9074 67.035 57.1558 67.035 53.5831 69.5318L52.6822 70.1614C44.7519 75.7036 34.3732 67.8317 37.4695 58.6655C38.8764 54.5002 37.3725 49.8884 33.7689 47.3699C25.8354 41.8255 29.7585 29.3633 39.4374 29.3633H40.1126C44.4485 29.3633 48.3114 26.5685 49.699 22.4606Z" fill="#FFE833"/>
</svg>
